<mxfile host="app.diagrams.net" modified="2021-09-17T11:10:51.848Z" agent="5.0 (Windows NT 10.0; Win64; x64) AppleWebKit/537.36 (KHTML, like Gecko) Chrome/71.0.3551.3 Safari/537.36" etag="BbxfhJ8vJFyn52_IKyaW" version="14.9.7" type="github">
  <diagram id="R2lEEEUBdFMjLlhIrx00" name="Page-1">
    <mxGraphModel dx="1422" dy="763" grid="0" gridSize="10" guides="1" tooltips="1" connect="1" arrows="1" fold="1" page="0" pageScale="1" pageWidth="850" pageHeight="1100" math="0" shadow="0" extFonts="Permanent Marker^https://fonts.googleapis.com/css?family=Permanent+Marker">
      <root>
        <mxCell id="0" />
        <mxCell id="1" parent="0" />
        <mxCell id="C-vyLk0tnHw3VtMMgP7b-1" value="" style="edgeStyle=entityRelationEdgeStyle;endArrow=ERzeroToMany;startArrow=ERone;endFill=1;startFill=0;entryX=1.008;entryY=0.7;entryDx=0;entryDy=0;entryPerimeter=0;" parent="1" source="C-vyLk0tnHw3VtMMgP7b-24" target="NYmwOqSYR06NfvhQdzBS-30" edge="1">
          <mxGeometry width="100" height="100" relative="1" as="geometry">
            <mxPoint x="340" y="720" as="sourcePoint" />
            <mxPoint x="500" y="330" as="targetPoint" />
          </mxGeometry>
        </mxCell>
        <mxCell id="NYmwOqSYR06NfvhQdzBS-59" value="n:1" style="edgeLabel;html=1;align=center;verticalAlign=middle;resizable=0;points=[];" parent="C-vyLk0tnHw3VtMMgP7b-1" vertex="1" connectable="0">
          <mxGeometry x="0.0535" y="-1" relative="1" as="geometry">
            <mxPoint as="offset" />
          </mxGeometry>
        </mxCell>
        <mxCell id="C-vyLk0tnHw3VtMMgP7b-12" value="" style="edgeStyle=entityRelationEdgeStyle;endArrow=ERone;startArrow=ERone;endFill=0;startFill=0;" parent="1" source="C-vyLk0tnHw3VtMMgP7b-3" target="C-vyLk0tnHw3VtMMgP7b-17" edge="1">
          <mxGeometry width="100" height="100" relative="1" as="geometry">
            <mxPoint x="400" y="180" as="sourcePoint" />
            <mxPoint x="460" y="205" as="targetPoint" />
          </mxGeometry>
        </mxCell>
        <mxCell id="NYmwOqSYR06NfvhQdzBS-25" value="1:1" style="edgeLabel;html=1;align=center;verticalAlign=middle;resizable=0;points=[];" parent="C-vyLk0tnHw3VtMMgP7b-12" vertex="1" connectable="0">
          <mxGeometry x="-0.0889" y="1" relative="1" as="geometry">
            <mxPoint as="offset" />
          </mxGeometry>
        </mxCell>
        <mxCell id="C-vyLk0tnHw3VtMMgP7b-2" value="功能模块与门户版本关系" style="shape=table;startSize=30;container=1;collapsible=1;childLayout=tableLayout;fixedRows=1;rowLines=0;fontStyle=1;align=center;resizeLast=1;fillColor=#f8cecc;strokeColor=#b85450;" parent="1" vertex="1">
          <mxGeometry x="670" y="330" width="260" height="190" as="geometry" />
        </mxCell>
        <mxCell id="C-vyLk0tnHw3VtMMgP7b-3" value="" style="shape=partialRectangle;collapsible=0;dropTarget=0;pointerEvents=0;fillColor=none;points=[[0,0.5],[1,0.5]];portConstraint=eastwest;top=0;left=0;right=0;bottom=1;" parent="C-vyLk0tnHw3VtMMgP7b-2" vertex="1">
          <mxGeometry y="30" width="260" height="30" as="geometry" />
        </mxCell>
        <mxCell id="C-vyLk0tnHw3VtMMgP7b-4" value="PK" style="shape=partialRectangle;overflow=hidden;connectable=0;fillColor=none;top=0;left=0;bottom=0;right=0;fontStyle=1;" parent="C-vyLk0tnHw3VtMMgP7b-3" vertex="1">
          <mxGeometry width="30" height="30" as="geometry" />
        </mxCell>
        <mxCell id="C-vyLk0tnHw3VtMMgP7b-5" value="主键ID" style="shape=partialRectangle;overflow=hidden;connectable=0;fillColor=none;top=0;left=0;bottom=0;right=0;align=left;spacingLeft=6;fontStyle=5;" parent="C-vyLk0tnHw3VtMMgP7b-3" vertex="1">
          <mxGeometry x="30" width="230" height="30" as="geometry" />
        </mxCell>
        <mxCell id="C-vyLk0tnHw3VtMMgP7b-6" value="" style="shape=partialRectangle;collapsible=0;dropTarget=0;pointerEvents=0;fillColor=none;points=[[0,0.5],[1,0.5]];portConstraint=eastwest;top=0;left=0;right=0;bottom=0;" parent="C-vyLk0tnHw3VtMMgP7b-2" vertex="1">
          <mxGeometry y="60" width="260" height="30" as="geometry" />
        </mxCell>
        <mxCell id="C-vyLk0tnHw3VtMMgP7b-7" value="FK1" style="shape=partialRectangle;overflow=hidden;connectable=0;fillColor=none;top=0;left=0;bottom=0;right=0;" parent="C-vyLk0tnHw3VtMMgP7b-6" vertex="1">
          <mxGeometry width="30" height="30" as="geometry" />
        </mxCell>
        <mxCell id="C-vyLk0tnHw3VtMMgP7b-8" value="模块code" style="shape=partialRectangle;overflow=hidden;connectable=0;fillColor=none;top=0;left=0;bottom=0;right=0;align=left;spacingLeft=6;" parent="C-vyLk0tnHw3VtMMgP7b-6" vertex="1">
          <mxGeometry x="30" width="230" height="30" as="geometry" />
        </mxCell>
        <mxCell id="C-vyLk0tnHw3VtMMgP7b-9" value="" style="shape=partialRectangle;collapsible=0;dropTarget=0;pointerEvents=0;fillColor=none;points=[[0,0.5],[1,0.5]];portConstraint=eastwest;top=0;left=0;right=0;bottom=0;" parent="C-vyLk0tnHw3VtMMgP7b-2" vertex="1">
          <mxGeometry y="90" width="260" height="30" as="geometry" />
        </mxCell>
        <mxCell id="C-vyLk0tnHw3VtMMgP7b-10" value="" style="shape=partialRectangle;overflow=hidden;connectable=0;fillColor=none;top=0;left=0;bottom=0;right=0;" parent="C-vyLk0tnHw3VtMMgP7b-9" vertex="1">
          <mxGeometry width="30" height="30" as="geometry" />
        </mxCell>
        <mxCell id="C-vyLk0tnHw3VtMMgP7b-11" value="门户版本号" style="shape=partialRectangle;overflow=hidden;connectable=0;fillColor=none;top=0;left=0;bottom=0;right=0;align=left;spacingLeft=6;" parent="C-vyLk0tnHw3VtMMgP7b-9" vertex="1">
          <mxGeometry x="30" width="230" height="30" as="geometry" />
        </mxCell>
        <mxCell id="NYmwOqSYR06NfvhQdzBS-78" value="" style="shape=partialRectangle;collapsible=0;dropTarget=0;pointerEvents=0;fillColor=none;points=[[0,0.5],[1,0.5]];portConstraint=eastwest;top=0;left=0;right=0;bottom=0;" parent="C-vyLk0tnHw3VtMMgP7b-2" vertex="1">
          <mxGeometry y="120" width="260" height="30" as="geometry" />
        </mxCell>
        <mxCell id="NYmwOqSYR06NfvhQdzBS-79" value="" style="shape=partialRectangle;overflow=hidden;connectable=0;fillColor=none;top=0;left=0;bottom=0;right=0;" parent="NYmwOqSYR06NfvhQdzBS-78" vertex="1">
          <mxGeometry width="30" height="30" as="geometry" />
        </mxCell>
        <mxCell id="NYmwOqSYR06NfvhQdzBS-80" value="功能点差异描述" style="shape=partialRectangle;overflow=hidden;connectable=0;fillColor=none;top=0;left=0;bottom=0;right=0;align=left;spacingLeft=6;" parent="NYmwOqSYR06NfvhQdzBS-78" vertex="1">
          <mxGeometry x="30" width="230" height="30" as="geometry" />
        </mxCell>
        <mxCell id="C-vyLk0tnHw3VtMMgP7b-13" value="功能模块" style="shape=table;startSize=30;container=1;collapsible=1;childLayout=tableLayout;fixedRows=1;rowLines=0;fontStyle=1;align=center;resizeLast=1;fillColor=#dae8fc;strokeColor=#6c8ebf;" parent="1" vertex="1">
          <mxGeometry x="1040" y="170" width="250" height="270" as="geometry" />
        </mxCell>
        <mxCell id="C-vyLk0tnHw3VtMMgP7b-14" value="" style="shape=partialRectangle;collapsible=0;dropTarget=0;pointerEvents=0;fillColor=none;points=[[0,0.5],[1,0.5]];portConstraint=eastwest;top=0;left=0;right=0;bottom=1;" parent="C-vyLk0tnHw3VtMMgP7b-13" vertex="1">
          <mxGeometry y="30" width="250" height="30" as="geometry" />
        </mxCell>
        <mxCell id="C-vyLk0tnHw3VtMMgP7b-15" value="PK" style="shape=partialRectangle;overflow=hidden;connectable=0;fillColor=none;top=0;left=0;bottom=0;right=0;fontStyle=1;" parent="C-vyLk0tnHw3VtMMgP7b-14" vertex="1">
          <mxGeometry width="30" height="30" as="geometry" />
        </mxCell>
        <mxCell id="C-vyLk0tnHw3VtMMgP7b-16" value="主键ID" style="shape=partialRectangle;overflow=hidden;connectable=0;fillColor=none;top=0;left=0;bottom=0;right=0;align=left;spacingLeft=6;fontStyle=5;" parent="C-vyLk0tnHw3VtMMgP7b-14" vertex="1">
          <mxGeometry x="30" width="220" height="30" as="geometry" />
        </mxCell>
        <mxCell id="C-vyLk0tnHw3VtMMgP7b-17" value="" style="shape=partialRectangle;collapsible=0;dropTarget=0;pointerEvents=0;fillColor=none;points=[[0,0.5],[1,0.5]];portConstraint=eastwest;top=0;left=0;right=0;bottom=0;" parent="C-vyLk0tnHw3VtMMgP7b-13" vertex="1">
          <mxGeometry y="60" width="250" height="30" as="geometry" />
        </mxCell>
        <mxCell id="C-vyLk0tnHw3VtMMgP7b-18" value="FK1" style="shape=partialRectangle;overflow=hidden;connectable=0;fillColor=none;top=0;left=0;bottom=0;right=0;" parent="C-vyLk0tnHw3VtMMgP7b-17" vertex="1">
          <mxGeometry width="30" height="30" as="geometry" />
        </mxCell>
        <mxCell id="C-vyLk0tnHw3VtMMgP7b-19" value="模块code" style="shape=partialRectangle;overflow=hidden;connectable=0;fillColor=none;top=0;left=0;bottom=0;right=0;align=left;spacingLeft=6;" parent="C-vyLk0tnHw3VtMMgP7b-17" vertex="1">
          <mxGeometry x="30" width="220" height="30" as="geometry" />
        </mxCell>
        <mxCell id="C-vyLk0tnHw3VtMMgP7b-20" value="" style="shape=partialRectangle;collapsible=0;dropTarget=0;pointerEvents=0;fillColor=none;points=[[0,0.5],[1,0.5]];portConstraint=eastwest;top=0;left=0;right=0;bottom=0;" parent="C-vyLk0tnHw3VtMMgP7b-13" vertex="1">
          <mxGeometry y="90" width="250" height="30" as="geometry" />
        </mxCell>
        <mxCell id="C-vyLk0tnHw3VtMMgP7b-21" value="" style="shape=partialRectangle;overflow=hidden;connectable=0;fillColor=none;top=0;left=0;bottom=0;right=0;" parent="C-vyLk0tnHw3VtMMgP7b-20" vertex="1">
          <mxGeometry width="30" height="30" as="geometry" />
        </mxCell>
        <mxCell id="C-vyLk0tnHw3VtMMgP7b-22" value="模块名称" style="shape=partialRectangle;overflow=hidden;connectable=0;fillColor=none;top=0;left=0;bottom=0;right=0;align=left;spacingLeft=6;" parent="C-vyLk0tnHw3VtMMgP7b-20" vertex="1">
          <mxGeometry x="30" width="220" height="30" as="geometry" />
        </mxCell>
        <mxCell id="NYmwOqSYR06NfvhQdzBS-75" value="" style="shape=partialRectangle;collapsible=0;dropTarget=0;pointerEvents=0;fillColor=none;points=[[0,0.5],[1,0.5]];portConstraint=eastwest;top=0;left=0;right=0;bottom=0;" parent="C-vyLk0tnHw3VtMMgP7b-13" vertex="1">
          <mxGeometry y="120" width="250" height="30" as="geometry" />
        </mxCell>
        <mxCell id="NYmwOqSYR06NfvhQdzBS-76" value="" style="shape=partialRectangle;overflow=hidden;connectable=0;fillColor=none;top=0;left=0;bottom=0;right=0;" parent="NYmwOqSYR06NfvhQdzBS-75" vertex="1">
          <mxGeometry width="30" height="30" as="geometry" />
        </mxCell>
        <mxCell id="NYmwOqSYR06NfvhQdzBS-77" value="表名" style="shape=partialRectangle;overflow=hidden;connectable=0;fillColor=none;top=0;left=0;bottom=0;right=0;align=left;spacingLeft=6;" parent="NYmwOqSYR06NfvhQdzBS-75" vertex="1">
          <mxGeometry x="30" width="220" height="30" as="geometry" />
        </mxCell>
        <mxCell id="NYmwOqSYR06NfvhQdzBS-4" value="" style="shape=partialRectangle;collapsible=0;dropTarget=0;pointerEvents=0;fillColor=none;points=[[0,0.5],[1,0.5]];portConstraint=eastwest;top=0;left=0;right=0;bottom=0;" parent="C-vyLk0tnHw3VtMMgP7b-13" vertex="1">
          <mxGeometry y="150" width="250" height="30" as="geometry" />
        </mxCell>
        <mxCell id="NYmwOqSYR06NfvhQdzBS-5" value="" style="shape=partialRectangle;overflow=hidden;connectable=0;fillColor=none;top=0;left=0;bottom=0;right=0;" parent="NYmwOqSYR06NfvhQdzBS-4" vertex="1">
          <mxGeometry width="30" height="30" as="geometry" />
        </mxCell>
        <mxCell id="NYmwOqSYR06NfvhQdzBS-6" value="模块类型：系统类型、功能类型" style="shape=partialRectangle;overflow=hidden;connectable=0;fillColor=none;top=0;left=0;bottom=0;right=0;align=left;spacingLeft=6;" parent="NYmwOqSYR06NfvhQdzBS-4" vertex="1">
          <mxGeometry x="30" width="220" height="30" as="geometry" />
        </mxCell>
        <mxCell id="NYmwOqSYR06NfvhQdzBS-41" value="" style="shape=partialRectangle;collapsible=0;dropTarget=0;pointerEvents=0;fillColor=none;points=[[0,0.5],[1,0.5]];portConstraint=eastwest;top=0;left=0;right=0;bottom=0;" parent="C-vyLk0tnHw3VtMMgP7b-13" vertex="1">
          <mxGeometry y="180" width="250" height="30" as="geometry" />
        </mxCell>
        <mxCell id="NYmwOqSYR06NfvhQdzBS-42" value="" style="shape=partialRectangle;overflow=hidden;connectable=0;fillColor=none;top=0;left=0;bottom=0;right=0;" parent="NYmwOqSYR06NfvhQdzBS-41" vertex="1">
          <mxGeometry width="30" height="30" as="geometry" />
        </mxCell>
        <mxCell id="NYmwOqSYR06NfvhQdzBS-43" value="模块描述" style="shape=partialRectangle;overflow=hidden;connectable=0;fillColor=none;top=0;left=0;bottom=0;right=0;align=left;spacingLeft=6;" parent="NYmwOqSYR06NfvhQdzBS-41" vertex="1">
          <mxGeometry x="30" width="220" height="30" as="geometry" />
        </mxCell>
        <mxCell id="NYmwOqSYR06NfvhQdzBS-81" value="" style="shape=partialRectangle;collapsible=0;dropTarget=0;pointerEvents=0;fillColor=none;points=[[0,0.5],[1,0.5]];portConstraint=eastwest;top=0;left=0;right=0;bottom=0;" parent="C-vyLk0tnHw3VtMMgP7b-13" vertex="1">
          <mxGeometry y="210" width="250" height="30" as="geometry" />
        </mxCell>
        <mxCell id="NYmwOqSYR06NfvhQdzBS-82" value="" style="shape=partialRectangle;overflow=hidden;connectable=0;fillColor=none;top=0;left=0;bottom=0;right=0;" parent="NYmwOqSYR06NfvhQdzBS-81" vertex="1">
          <mxGeometry width="30" height="30" as="geometry" />
        </mxCell>
        <mxCell id="NYmwOqSYR06NfvhQdzBS-83" value="排序" style="shape=partialRectangle;overflow=hidden;connectable=0;fillColor=none;top=0;left=0;bottom=0;right=0;align=left;spacingLeft=6;" parent="NYmwOqSYR06NfvhQdzBS-81" vertex="1">
          <mxGeometry x="30" width="220" height="30" as="geometry" />
        </mxCell>
        <mxCell id="C-vyLk0tnHw3VtMMgP7b-23" value="ERP版本" style="shape=table;startSize=30;container=1;collapsible=1;childLayout=tableLayout;fixedRows=1;rowLines=0;fontStyle=1;align=center;resizeLast=1;fillColor=#dae8fc;strokeColor=#6c8ebf;" parent="1" vertex="1">
          <mxGeometry x="670" y="90" width="260" height="220" as="geometry" />
        </mxCell>
        <mxCell id="C-vyLk0tnHw3VtMMgP7b-24" value="" style="shape=partialRectangle;collapsible=0;dropTarget=0;pointerEvents=0;fillColor=none;points=[[0,0.5],[1,0.5]];portConstraint=eastwest;top=0;left=0;right=0;bottom=1;" parent="C-vyLk0tnHw3VtMMgP7b-23" vertex="1">
          <mxGeometry y="30" width="260" height="30" as="geometry" />
        </mxCell>
        <mxCell id="C-vyLk0tnHw3VtMMgP7b-25" value="PK" style="shape=partialRectangle;overflow=hidden;connectable=0;fillColor=none;top=0;left=0;bottom=0;right=0;fontStyle=1;" parent="C-vyLk0tnHw3VtMMgP7b-24" vertex="1">
          <mxGeometry width="30" height="30" as="geometry" />
        </mxCell>
        <mxCell id="C-vyLk0tnHw3VtMMgP7b-26" value="主键ID" style="shape=partialRectangle;overflow=hidden;connectable=0;fillColor=none;top=0;left=0;bottom=0;right=0;align=left;spacingLeft=6;fontStyle=5;" parent="C-vyLk0tnHw3VtMMgP7b-24" vertex="1">
          <mxGeometry x="30" width="230" height="30" as="geometry" />
        </mxCell>
        <mxCell id="C-vyLk0tnHw3VtMMgP7b-27" value="" style="shape=partialRectangle;collapsible=0;dropTarget=0;pointerEvents=0;fillColor=none;points=[[0,0.5],[1,0.5]];portConstraint=eastwest;top=0;left=0;right=0;bottom=0;" parent="C-vyLk0tnHw3VtMMgP7b-23" vertex="1">
          <mxGeometry y="60" width="260" height="40" as="geometry" />
        </mxCell>
        <mxCell id="C-vyLk0tnHw3VtMMgP7b-28" value="" style="shape=partialRectangle;overflow=hidden;connectable=0;fillColor=none;top=0;left=0;bottom=0;right=0;" parent="C-vyLk0tnHw3VtMMgP7b-27" vertex="1">
          <mxGeometry width="30" height="40" as="geometry" />
        </mxCell>
        <mxCell id="C-vyLk0tnHw3VtMMgP7b-29" value="版本号" style="shape=partialRectangle;overflow=hidden;connectable=0;fillColor=none;top=0;left=0;bottom=0;right=0;align=left;spacingLeft=6;" parent="C-vyLk0tnHw3VtMMgP7b-27" vertex="1">
          <mxGeometry x="30" width="230" height="40" as="geometry" />
        </mxCell>
        <mxCell id="NYmwOqSYR06NfvhQdzBS-1" value="" style="shape=partialRectangle;collapsible=0;dropTarget=0;pointerEvents=0;fillColor=none;points=[[0,0.5],[1,0.5]];portConstraint=eastwest;top=0;left=0;right=0;bottom=0;" parent="C-vyLk0tnHw3VtMMgP7b-23" vertex="1">
          <mxGeometry y="100" width="260" height="40" as="geometry" />
        </mxCell>
        <mxCell id="NYmwOqSYR06NfvhQdzBS-2" value="" style="shape=partialRectangle;overflow=hidden;connectable=0;fillColor=none;top=0;left=0;bottom=0;right=0;" parent="NYmwOqSYR06NfvhQdzBS-1" vertex="1">
          <mxGeometry width="30" height="40" as="geometry" />
        </mxCell>
        <mxCell id="NYmwOqSYR06NfvhQdzBS-3" value="版本描述" style="shape=partialRectangle;overflow=hidden;connectable=0;fillColor=none;top=0;left=0;bottom=0;right=0;align=left;spacingLeft=6;" parent="NYmwOqSYR06NfvhQdzBS-1" vertex="1">
          <mxGeometry x="30" width="230" height="40" as="geometry" />
        </mxCell>
        <mxCell id="NYmwOqSYR06NfvhQdzBS-86" value="" style="shape=partialRectangle;collapsible=0;dropTarget=0;pointerEvents=0;fillColor=none;points=[[0,0.5],[1,0.5]];portConstraint=eastwest;top=0;left=0;right=0;bottom=0;" parent="C-vyLk0tnHw3VtMMgP7b-23" vertex="1">
          <mxGeometry y="140" width="260" height="40" as="geometry" />
        </mxCell>
        <mxCell id="NYmwOqSYR06NfvhQdzBS-87" value="" style="shape=partialRectangle;overflow=hidden;connectable=0;fillColor=none;top=0;left=0;bottom=0;right=0;" parent="NYmwOqSYR06NfvhQdzBS-86" vertex="1">
          <mxGeometry width="30" height="40" as="geometry" />
        </mxCell>
        <mxCell id="NYmwOqSYR06NfvhQdzBS-88" value="排序" style="shape=partialRectangle;overflow=hidden;connectable=0;fillColor=none;top=0;left=0;bottom=0;right=0;align=left;spacingLeft=6;" parent="NYmwOqSYR06NfvhQdzBS-86" vertex="1">
          <mxGeometry x="30" width="230" height="40" as="geometry" />
        </mxCell>
        <mxCell id="NYmwOqSYR06NfvhQdzBS-7" value="门户版本" style="shape=table;startSize=30;container=1;collapsible=1;childLayout=tableLayout;fixedRows=1;rowLines=0;fontStyle=1;align=center;resizeLast=1;fillColor=#dae8fc;strokeColor=#6c8ebf;" parent="1" vertex="1">
          <mxGeometry x="1040" y="470" width="250" height="160" as="geometry" />
        </mxCell>
        <mxCell id="NYmwOqSYR06NfvhQdzBS-8" value="" style="shape=partialRectangle;collapsible=0;dropTarget=0;pointerEvents=0;fillColor=none;points=[[0,0.5],[1,0.5]];portConstraint=eastwest;top=0;left=0;right=0;bottom=1;" parent="NYmwOqSYR06NfvhQdzBS-7" vertex="1">
          <mxGeometry y="30" width="250" height="30" as="geometry" />
        </mxCell>
        <mxCell id="NYmwOqSYR06NfvhQdzBS-9" value="PK" style="shape=partialRectangle;overflow=hidden;connectable=0;fillColor=none;top=0;left=0;bottom=0;right=0;fontStyle=1;" parent="NYmwOqSYR06NfvhQdzBS-8" vertex="1">
          <mxGeometry width="30" height="30" as="geometry" />
        </mxCell>
        <mxCell id="NYmwOqSYR06NfvhQdzBS-10" value="主键ID" style="shape=partialRectangle;overflow=hidden;connectable=0;fillColor=none;top=0;left=0;bottom=0;right=0;align=left;spacingLeft=6;fontStyle=5;" parent="NYmwOqSYR06NfvhQdzBS-8" vertex="1">
          <mxGeometry x="30" width="220" height="30" as="geometry" />
        </mxCell>
        <mxCell id="NYmwOqSYR06NfvhQdzBS-11" value="" style="shape=partialRectangle;collapsible=0;dropTarget=0;pointerEvents=0;fillColor=none;points=[[0,0.5],[1,0.5]];portConstraint=eastwest;top=0;left=0;right=0;bottom=0;" parent="NYmwOqSYR06NfvhQdzBS-7" vertex="1">
          <mxGeometry y="60" width="250" height="30" as="geometry" />
        </mxCell>
        <mxCell id="NYmwOqSYR06NfvhQdzBS-12" value="FK1" style="shape=partialRectangle;overflow=hidden;connectable=0;fillColor=none;top=0;left=0;bottom=0;right=0;" parent="NYmwOqSYR06NfvhQdzBS-11" vertex="1">
          <mxGeometry width="30" height="30" as="geometry" />
        </mxCell>
        <mxCell id="NYmwOqSYR06NfvhQdzBS-13" value="版本号" style="shape=partialRectangle;overflow=hidden;connectable=0;fillColor=none;top=0;left=0;bottom=0;right=0;align=left;spacingLeft=6;" parent="NYmwOqSYR06NfvhQdzBS-11" vertex="1">
          <mxGeometry x="30" width="220" height="30" as="geometry" />
        </mxCell>
        <mxCell id="NYmwOqSYR06NfvhQdzBS-14" value="" style="shape=partialRectangle;collapsible=0;dropTarget=0;pointerEvents=0;fillColor=none;points=[[0,0.5],[1,0.5]];portConstraint=eastwest;top=0;left=0;right=0;bottom=0;" parent="NYmwOqSYR06NfvhQdzBS-7" vertex="1">
          <mxGeometry y="90" width="250" height="30" as="geometry" />
        </mxCell>
        <mxCell id="NYmwOqSYR06NfvhQdzBS-15" value="" style="shape=partialRectangle;overflow=hidden;connectable=0;fillColor=none;top=0;left=0;bottom=0;right=0;" parent="NYmwOqSYR06NfvhQdzBS-14" vertex="1">
          <mxGeometry width="30" height="30" as="geometry" />
        </mxCell>
        <mxCell id="NYmwOqSYR06NfvhQdzBS-16" value="版本描述" style="shape=partialRectangle;overflow=hidden;connectable=0;fillColor=none;top=0;left=0;bottom=0;right=0;align=left;spacingLeft=6;" parent="NYmwOqSYR06NfvhQdzBS-14" vertex="1">
          <mxGeometry x="30" width="220" height="30" as="geometry" />
        </mxCell>
        <mxCell id="NYmwOqSYR06NfvhQdzBS-17" value="" style="shape=partialRectangle;collapsible=0;dropTarget=0;pointerEvents=0;fillColor=none;points=[[0,0.5],[1,0.5]];portConstraint=eastwest;top=0;left=0;right=0;bottom=0;" parent="NYmwOqSYR06NfvhQdzBS-7" vertex="1">
          <mxGeometry y="120" width="250" height="30" as="geometry" />
        </mxCell>
        <mxCell id="NYmwOqSYR06NfvhQdzBS-18" value="" style="shape=partialRectangle;overflow=hidden;connectable=0;fillColor=none;top=0;left=0;bottom=0;right=0;" parent="NYmwOqSYR06NfvhQdzBS-17" vertex="1">
          <mxGeometry width="30" height="30" as="geometry" />
        </mxCell>
        <mxCell id="NYmwOqSYR06NfvhQdzBS-19" value="排序" style="shape=partialRectangle;overflow=hidden;connectable=0;fillColor=none;top=0;left=0;bottom=0;right=0;align=left;spacingLeft=6;" parent="NYmwOqSYR06NfvhQdzBS-17" vertex="1">
          <mxGeometry x="30" width="220" height="30" as="geometry" />
        </mxCell>
        <mxCell id="NYmwOqSYR06NfvhQdzBS-23" value="" style="edgeStyle=entityRelationEdgeStyle;endArrow=ERzeroToMany;startArrow=ERone;endFill=1;startFill=0;entryX=-0.004;entryY=1;entryDx=0;entryDy=0;entryPerimeter=0;exitX=1;exitY=0.9;exitDx=0;exitDy=0;exitPerimeter=0;" parent="1" source="C-vyLk0tnHw3VtMMgP7b-3" target="NYmwOqSYR06NfvhQdzBS-11" edge="1">
          <mxGeometry width="100" height="100" relative="1" as="geometry">
            <mxPoint x="680" y="160" as="sourcePoint" />
            <mxPoint x="815" y="190" as="targetPoint" />
          </mxGeometry>
        </mxCell>
        <mxCell id="NYmwOqSYR06NfvhQdzBS-24" value="1:n" style="edgeLabel;html=1;align=center;verticalAlign=middle;resizable=0;points=[];" parent="NYmwOqSYR06NfvhQdzBS-23" vertex="1" connectable="0">
          <mxGeometry x="-0.2804" y="-3" relative="1" as="geometry">
            <mxPoint as="offset" />
          </mxGeometry>
        </mxCell>
        <mxCell id="NYmwOqSYR06NfvhQdzBS-26" value="ERP版本对应门户功能模块" style="shape=table;startSize=30;container=1;collapsible=1;childLayout=tableLayout;fixedRows=1;rowLines=0;fontStyle=1;align=center;resizeLast=1;fillColor=#f8cecc;strokeColor=#b85450;" parent="1" vertex="1">
          <mxGeometry x="310" y="90" width="260" height="260" as="geometry" />
        </mxCell>
        <mxCell id="NYmwOqSYR06NfvhQdzBS-27" value="" style="shape=partialRectangle;collapsible=0;dropTarget=0;pointerEvents=0;fillColor=none;points=[[0,0.5],[1,0.5]];portConstraint=eastwest;top=0;left=0;right=0;bottom=1;" parent="NYmwOqSYR06NfvhQdzBS-26" vertex="1">
          <mxGeometry y="30" width="260" height="30" as="geometry" />
        </mxCell>
        <mxCell id="NYmwOqSYR06NfvhQdzBS-28" value="PK" style="shape=partialRectangle;overflow=hidden;connectable=0;fillColor=none;top=0;left=0;bottom=0;right=0;fontStyle=1;" parent="NYmwOqSYR06NfvhQdzBS-27" vertex="1">
          <mxGeometry width="30" height="30" as="geometry" />
        </mxCell>
        <mxCell id="NYmwOqSYR06NfvhQdzBS-29" value="主键ID" style="shape=partialRectangle;overflow=hidden;connectable=0;fillColor=none;top=0;left=0;bottom=0;right=0;align=left;spacingLeft=6;fontStyle=5;" parent="NYmwOqSYR06NfvhQdzBS-27" vertex="1">
          <mxGeometry x="30" width="230" height="30" as="geometry" />
        </mxCell>
        <mxCell id="NYmwOqSYR06NfvhQdzBS-30" value="" style="shape=partialRectangle;collapsible=0;dropTarget=0;pointerEvents=0;fillColor=none;points=[[0,0.5],[1,0.5]];portConstraint=eastwest;top=0;left=0;right=0;bottom=0;" parent="NYmwOqSYR06NfvhQdzBS-26" vertex="1">
          <mxGeometry y="60" width="260" height="40" as="geometry" />
        </mxCell>
        <mxCell id="NYmwOqSYR06NfvhQdzBS-31" value="" style="shape=partialRectangle;overflow=hidden;connectable=0;fillColor=none;top=0;left=0;bottom=0;right=0;" parent="NYmwOqSYR06NfvhQdzBS-30" vertex="1">
          <mxGeometry width="30" height="40" as="geometry" />
        </mxCell>
        <mxCell id="NYmwOqSYR06NfvhQdzBS-32" value="ERP版本" style="shape=partialRectangle;overflow=hidden;connectable=0;fillColor=none;top=0;left=0;bottom=0;right=0;align=left;spacingLeft=6;" parent="NYmwOqSYR06NfvhQdzBS-30" vertex="1">
          <mxGeometry x="30" width="230" height="40" as="geometry" />
        </mxCell>
        <mxCell id="NYmwOqSYR06NfvhQdzBS-33" value="" style="shape=partialRectangle;collapsible=0;dropTarget=0;pointerEvents=0;fillColor=none;points=[[0,0.5],[1,0.5]];portConstraint=eastwest;top=0;left=0;right=0;bottom=0;" parent="NYmwOqSYR06NfvhQdzBS-26" vertex="1">
          <mxGeometry y="100" width="260" height="40" as="geometry" />
        </mxCell>
        <mxCell id="NYmwOqSYR06NfvhQdzBS-34" value="" style="shape=partialRectangle;overflow=hidden;connectable=0;fillColor=none;top=0;left=0;bottom=0;right=0;" parent="NYmwOqSYR06NfvhQdzBS-33" vertex="1">
          <mxGeometry width="30" height="40" as="geometry" />
        </mxCell>
        <mxCell id="NYmwOqSYR06NfvhQdzBS-35" value="功能模块与门户版本关系ID" style="shape=partialRectangle;overflow=hidden;connectable=0;fillColor=none;top=0;left=0;bottom=0;right=0;align=left;spacingLeft=6;" parent="NYmwOqSYR06NfvhQdzBS-33" vertex="1">
          <mxGeometry x="30" width="230" height="40" as="geometry" />
        </mxCell>
        <mxCell id="pvaL8urcu7SGlofJSGDm-1" value="" style="shape=partialRectangle;collapsible=0;dropTarget=0;pointerEvents=0;fillColor=none;points=[[0,0.5],[1,0.5]];portConstraint=eastwest;top=0;left=0;right=0;bottom=0;" parent="NYmwOqSYR06NfvhQdzBS-26" vertex="1">
          <mxGeometry y="140" width="260" height="40" as="geometry" />
        </mxCell>
        <mxCell id="pvaL8urcu7SGlofJSGDm-2" value="" style="shape=partialRectangle;overflow=hidden;connectable=0;fillColor=none;top=0;left=0;bottom=0;right=0;" parent="pvaL8urcu7SGlofJSGDm-1" vertex="1">
          <mxGeometry width="30" height="40" as="geometry" />
        </mxCell>
        <mxCell id="pvaL8urcu7SGlofJSGDm-3" value="租户id" style="shape=partialRectangle;overflow=hidden;connectable=0;fillColor=none;top=0;left=0;bottom=0;right=0;align=left;spacingLeft=6;" parent="pvaL8urcu7SGlofJSGDm-1" vertex="1">
          <mxGeometry x="30" width="230" height="40" as="geometry" />
        </mxCell>
        <mxCell id="NYmwOqSYR06NfvhQdzBS-36" style="edgeStyle=orthogonalEdgeStyle;rounded=0;orthogonalLoop=1;jettySize=auto;html=1;exitX=0;exitY=0.5;exitDx=0;exitDy=0;entryX=1;entryY=0.5;entryDx=0;entryDy=0;endArrow=ERmany;endFill=0;startArrow=ERone;startFill=0;" parent="1" source="C-vyLk0tnHw3VtMMgP7b-3" target="NYmwOqSYR06NfvhQdzBS-33" edge="1">
          <mxGeometry relative="1" as="geometry" />
        </mxCell>
        <mxCell id="NYmwOqSYR06NfvhQdzBS-60" value="n:1" style="edgeLabel;html=1;align=center;verticalAlign=middle;resizable=0;points=[];" parent="NYmwOqSYR06NfvhQdzBS-36" vertex="1" connectable="0">
          <mxGeometry x="0.0943" y="1" relative="1" as="geometry">
            <mxPoint as="offset" />
          </mxGeometry>
        </mxCell>
        <mxCell id="o6lIFUs55wkeNJCxtm7P-4" style="edgeStyle=orthogonalEdgeStyle;rounded=0;orthogonalLoop=1;jettySize=auto;html=1;exitX=1;exitY=0.5;exitDx=0;exitDy=0;" edge="1" parent="1" source="o6lIFUs55wkeNJCxtm7P-1">
          <mxGeometry relative="1" as="geometry">
            <mxPoint x="421" y="698" as="targetPoint" />
          </mxGeometry>
        </mxCell>
        <mxCell id="o6lIFUs55wkeNJCxtm7P-1" value="正式库" style="ellipse;whiteSpace=wrap;html=1;aspect=fixed;" vertex="1" parent="1">
          <mxGeometry x="295" y="658" width="80" height="80" as="geometry" />
        </mxCell>
        <mxCell id="o6lIFUs55wkeNJCxtm7P-7" style="edgeStyle=orthogonalEdgeStyle;rounded=0;orthogonalLoop=1;jettySize=auto;html=1;exitX=1;exitY=0.5;exitDx=0;exitDy=0;" edge="1" parent="1" source="o6lIFUs55wkeNJCxtm7P-2">
          <mxGeometry relative="1" as="geometry">
            <mxPoint x="551" y="698" as="targetPoint" />
          </mxGeometry>
        </mxCell>
        <mxCell id="o6lIFUs55wkeNJCxtm7P-2" value="迁移库" style="ellipse;whiteSpace=wrap;html=1;aspect=fixed;" vertex="1" parent="1">
          <mxGeometry x="424" y="658" width="80" height="80" as="geometry" />
        </mxCell>
        <mxCell id="o6lIFUs55wkeNJCxtm7P-3" value="升级之后的迁移库" style="ellipse;whiteSpace=wrap;html=1;aspect=fixed;" vertex="1" parent="1">
          <mxGeometry x="553" y="658" width="80" height="80" as="geometry" />
        </mxCell>
        <mxCell id="o6lIFUs55wkeNJCxtm7P-5" value="备份" style="text;html=1;strokeColor=none;fillColor=none;align=center;verticalAlign=middle;whiteSpace=wrap;rounded=0;" vertex="1" parent="1">
          <mxGeometry x="375" y="671" width="40" height="20" as="geometry" />
        </mxCell>
        <mxCell id="o6lIFUs55wkeNJCxtm7P-8" value="升级" style="text;html=1;strokeColor=none;fillColor=none;align=center;verticalAlign=middle;whiteSpace=wrap;rounded=0;" vertex="1" parent="1">
          <mxGeometry x="504" y="675" width="40" height="20" as="geometry" />
        </mxCell>
        <mxCell id="o6lIFUs55wkeNJCxtm7P-9" value="实时顾问" style="shape=umlActor;verticalLabelPosition=bottom;verticalAlign=top;html=1;outlineConnect=0;" vertex="1" parent="1">
          <mxGeometry x="440" y="854" width="30" height="60" as="geometry" />
        </mxCell>
        <mxCell id="o6lIFUs55wkeNJCxtm7P-12" value="云采购运营人员" style="shape=umlActor;verticalLabelPosition=bottom;verticalAlign=top;html=1;outlineConnect=0;" vertex="1" parent="1">
          <mxGeometry x="540" y="854" width="30" height="60" as="geometry" />
        </mxCell>
        <mxCell id="o6lIFUs55wkeNJCxtm7P-13" value="门户运营人员" style="shape=umlActor;verticalLabelPosition=bottom;verticalAlign=top;html=1;outlineConnect=0;" vertex="1" parent="1">
          <mxGeometry x="644" y="854" width="30" height="60" as="geometry" />
        </mxCell>
        <mxCell id="o6lIFUs55wkeNJCxtm7P-14" value="门户测试人员" style="shape=umlActor;verticalLabelPosition=bottom;verticalAlign=top;html=1;outlineConnect=0;" vertex="1" parent="1">
          <mxGeometry x="748" y="852" width="30" height="60" as="geometry" />
        </mxCell>
        <mxCell id="o6lIFUs55wkeNJCxtm7P-17" value="门户开发者" style="shape=umlActor;verticalLabelPosition=bottom;verticalAlign=top;html=1;outlineConnect=0;" vertex="1" parent="1">
          <mxGeometry x="852" y="849" width="30" height="60" as="geometry" />
        </mxCell>
        <mxCell id="o6lIFUs55wkeNJCxtm7P-19" value="合同会签" style="strokeWidth=2;html=1;shape=mxgraph.flowchart.terminator;whiteSpace=wrap;" vertex="1" parent="1">
          <mxGeometry x="404" y="1035" width="100" height="60" as="geometry" />
        </mxCell>
        <mxCell id="o6lIFUs55wkeNJCxtm7P-20" value="" style="verticalLabelPosition=bottom;verticalAlign=top;html=1;strokeWidth=2;shape=mxgraph.arrows2.arrow;dy=0.6;dx=40;notch=0;" vertex="1" parent="1">
          <mxGeometry x="518" y="1050.5" width="79" height="29" as="geometry" />
        </mxCell>
        <mxCell id="o6lIFUs55wkeNJCxtm7P-21" value="SCRM出库" style="strokeWidth=2;html=1;shape=mxgraph.flowchart.terminator;whiteSpace=wrap;" vertex="1" parent="1">
          <mxGeometry x="614" y="1035" width="100" height="60" as="geometry" />
        </mxCell>
        <mxCell id="o6lIFUs55wkeNJCxtm7P-22" value="" style="verticalLabelPosition=bottom;verticalAlign=top;html=1;strokeWidth=2;shape=mxgraph.arrows2.arrow;dy=0.6;dx=40;notch=0;" vertex="1" parent="1">
          <mxGeometry x="737" y="1050.5" width="79" height="29" as="geometry" />
        </mxCell>
        <mxCell id="o6lIFUs55wkeNJCxtm7P-25" value="工具平台&lt;br&gt;采招系统环境搭建" style="strokeWidth=2;html=1;shape=mxgraph.flowchart.terminator;whiteSpace=wrap;" vertex="1" parent="1">
          <mxGeometry x="842" y="1035" width="100" height="60" as="geometry" />
        </mxCell>
        <mxCell id="o6lIFUs55wkeNJCxtm7P-26" value="Pool" style="swimlane;childLayout=stackLayout;resizeParent=1;resizeParentMax=0;horizontal=1;startSize=20;horizontalStack=0;" vertex="1" parent="1">
          <mxGeometry x="551" y="1277" width="808" height="620" as="geometry" />
        </mxCell>
        <mxCell id="o6lIFUs55wkeNJCxtm7P-27" value="实时顾问" style="swimlane;startSize=20;horizontal=0;" vertex="1" parent="o6lIFUs55wkeNJCxtm7P-26">
          <mxGeometry y="20" width="808" height="120" as="geometry" />
        </mxCell>
        <mxCell id="o6lIFUs55wkeNJCxtm7P-38" value="" style="shape=actor;whiteSpace=wrap;html=1;" vertex="1" parent="o6lIFUs55wkeNJCxtm7P-27">
          <mxGeometry x="42" y="40" width="26" height="34" as="geometry" />
        </mxCell>
        <mxCell id="o6lIFUs55wkeNJCxtm7P-39" value="实时顾问" style="text;html=1;strokeColor=none;fillColor=none;align=center;verticalAlign=middle;whiteSpace=wrap;rounded=0;" vertex="1" parent="o6lIFUs55wkeNJCxtm7P-27">
          <mxGeometry x="34" y="86" width="52" height="22" as="geometry" />
        </mxCell>
        <mxCell id="o6lIFUs55wkeNJCxtm7P-40" value="环境申请" style="rounded=0;whiteSpace=wrap;html=1;fillColor=#ABABAB;strokeColor=none;" vertex="1" parent="o6lIFUs55wkeNJCxtm7P-27">
          <mxGeometry x="135" y="36" width="92" height="42" as="geometry" />
        </mxCell>
        <mxCell id="o6lIFUs55wkeNJCxtm7P-28" value="云采购运营人员" style="swimlane;startSize=20;horizontal=0;" vertex="1" parent="o6lIFUs55wkeNJCxtm7P-26">
          <mxGeometry y="140" width="808" height="120" as="geometry" />
        </mxCell>
        <mxCell id="o6lIFUs55wkeNJCxtm7P-41" value="" style="shape=actor;whiteSpace=wrap;html=1;" vertex="1" parent="o6lIFUs55wkeNJCxtm7P-28">
          <mxGeometry x="46" y="27" width="26" height="34" as="geometry" />
        </mxCell>
        <mxCell id="o6lIFUs55wkeNJCxtm7P-42" value="云采购运营" style="text;html=1;strokeColor=none;fillColor=none;align=center;verticalAlign=middle;whiteSpace=wrap;rounded=0;" vertex="1" parent="o6lIFUs55wkeNJCxtm7P-28">
          <mxGeometry x="38" y="73" width="67" height="20" as="geometry" />
        </mxCell>
        <mxCell id="o6lIFUs55wkeNJCxtm7P-43" value="填写平台&lt;br&gt;开发商信息" style="rounded=0;whiteSpace=wrap;html=1;fillColor=#FFB366;strokeColor=none;" vertex="1" parent="o6lIFUs55wkeNJCxtm7P-28">
          <mxGeometry x="135" y="34" width="92" height="42" as="geometry" />
        </mxCell>
        <mxCell id="o6lIFUs55wkeNJCxtm7P-46" value="提交资料" style="rounded=0;whiteSpace=wrap;html=1;fillColor=#FFB366;strokeColor=none;" vertex="1" parent="o6lIFUs55wkeNJCxtm7P-28">
          <mxGeometry x="260" y="34" width="92" height="42" as="geometry" />
        </mxCell>
        <mxCell id="o6lIFUs55wkeNJCxtm7P-34" value="门户测试人员" style="swimlane;startSize=20;horizontal=0;" vertex="1" parent="o6lIFUs55wkeNJCxtm7P-26">
          <mxGeometry y="260" width="808" height="120" as="geometry" />
        </mxCell>
        <mxCell id="o6lIFUs55wkeNJCxtm7P-48" value="" style="rounded=0;whiteSpace=wrap;html=1;fillColor=#FFFF99;strokeColor=none;" vertex="1" parent="o6lIFUs55wkeNJCxtm7P-34">
          <mxGeometry x="263" y="17" width="250" height="75" as="geometry" />
        </mxCell>
        <mxCell id="o6lIFUs55wkeNJCxtm7P-50" value="" style="verticalLabelPosition=bottom;verticalAlign=top;html=1;shape=mxgraph.basic.8_point_star;fillColor=#6666FF;" vertex="1" parent="o6lIFUs55wkeNJCxtm7P-34">
          <mxGeometry x="292" y="66" width="21" height="18" as="geometry" />
        </mxCell>
        <mxCell id="o6lIFUs55wkeNJCxtm7P-54" value="" style="verticalLabelPosition=bottom;verticalAlign=top;html=1;shape=mxgraph.basic.8_point_star;fillColor=#6666FF;" vertex="1" parent="o6lIFUs55wkeNJCxtm7P-34">
          <mxGeometry x="446" y="66" width="21" height="18" as="geometry" />
        </mxCell>
        <mxCell id="o6lIFUs55wkeNJCxtm7P-55" value="云采购信息" style="text;html=1;strokeColor=none;fillColor=none;align=center;verticalAlign=middle;whiteSpace=wrap;rounded=0;" vertex="1" parent="o6lIFUs55wkeNJCxtm7P-34">
          <mxGeometry x="437" y="45" width="64" height="20" as="geometry" />
        </mxCell>
        <mxCell id="o6lIFUs55wkeNJCxtm7P-49" value="信息审核" style="text;html=1;strokeColor=none;fillColor=none;align=center;verticalAlign=middle;whiteSpace=wrap;rounded=0;" vertex="1" parent="o6lIFUs55wkeNJCxtm7P-34">
          <mxGeometry x="351" y="13" width="54" height="20" as="geometry" />
        </mxCell>
        <mxCell id="o6lIFUs55wkeNJCxtm7P-57" value="一键打通环境" style="rounded=0;whiteSpace=wrap;html=1;fillColor=#FFFF99;strokeColor=none;" vertex="1" parent="o6lIFUs55wkeNJCxtm7P-34">
          <mxGeometry x="600" y="33" width="92" height="42" as="geometry" />
        </mxCell>
        <mxCell id="o6lIFUs55wkeNJCxtm7P-52" value="" style="verticalLabelPosition=bottom;verticalAlign=top;html=1;shape=mxgraph.basic.8_point_star;fillColor=#6666FF;" vertex="1" parent="o6lIFUs55wkeNJCxtm7P-34">
          <mxGeometry x="365" y="66" width="21" height="18" as="geometry" />
        </mxCell>
        <mxCell id="o6lIFUs55wkeNJCxtm7P-51" value="ERP信息" style="text;html=1;strokeColor=none;fillColor=none;align=center;verticalAlign=middle;whiteSpace=wrap;rounded=0;" vertex="1" parent="o6lIFUs55wkeNJCxtm7P-34">
          <mxGeometry x="280" y="46" width="54" height="20" as="geometry" />
        </mxCell>
        <mxCell id="o6lIFUs55wkeNJCxtm7P-36" value="门户开发人员" style="swimlane;startSize=20;horizontal=0;" vertex="1" parent="o6lIFUs55wkeNJCxtm7P-26">
          <mxGeometry y="380" width="808" height="120" as="geometry" />
        </mxCell>
        <mxCell id="o6lIFUs55wkeNJCxtm7P-59" value="修改环境信息" style="html=1;shadow=0;dashed=0;align=center;verticalAlign=middle;shape=mxgraph.arrows2.arrow;dy=0;dx=30;notch=30;fillColor=#66B2FF;" vertex="1" parent="o6lIFUs55wkeNJCxtm7P-36">
          <mxGeometry x="148" y="43" width="141" height="60" as="geometry" />
        </mxCell>
        <mxCell id="o6lIFUs55wkeNJCxtm7P-60" value="一键打通" style="html=1;shadow=0;dashed=0;align=center;verticalAlign=middle;shape=mxgraph.arrows2.arrow;dy=0;dx=30;notch=30;fillColor=#66B2FF;" vertex="1" parent="o6lIFUs55wkeNJCxtm7P-36">
          <mxGeometry x="302" y="43" width="137" height="60" as="geometry" />
        </mxCell>
        <mxCell id="o6lIFUs55wkeNJCxtm7P-64" value="环境变更" style="text;html=1;strokeColor=none;fillColor=none;align=center;verticalAlign=middle;whiteSpace=wrap;rounded=0;" vertex="1" parent="o6lIFUs55wkeNJCxtm7P-36">
          <mxGeometry x="138" y="8" width="53" height="20" as="geometry" />
        </mxCell>
        <mxCell id="o6lIFUs55wkeNJCxtm7P-67" value="" style="shape=actor;whiteSpace=wrap;html=1;" vertex="1" parent="o6lIFUs55wkeNJCxtm7P-36">
          <mxGeometry x="39" y="30" width="26" height="34" as="geometry" />
        </mxCell>
        <mxCell id="o6lIFUs55wkeNJCxtm7P-68" value="门户开发人员" style="text;html=1;strokeColor=none;fillColor=none;align=center;verticalAlign=middle;whiteSpace=wrap;rounded=0;" vertex="1" parent="o6lIFUs55wkeNJCxtm7P-36">
          <mxGeometry x="31" y="76" width="80" height="20" as="geometry" />
        </mxCell>
        <mxCell id="o6lIFUs55wkeNJCxtm7P-37" value="门户运营人员" style="swimlane;startSize=20;horizontal=0;" vertex="1" parent="o6lIFUs55wkeNJCxtm7P-26">
          <mxGeometry y="500" width="808" height="120" as="geometry" />
        </mxCell>
        <mxCell id="o6lIFUs55wkeNJCxtm7P-69" value="" style="shape=actor;whiteSpace=wrap;html=1;" vertex="1" parent="o6lIFUs55wkeNJCxtm7P-37">
          <mxGeometry x="42" y="22" width="26" height="34" as="geometry" />
        </mxCell>
        <mxCell id="o6lIFUs55wkeNJCxtm7P-70" value="门户运营人员" style="text;html=1;strokeColor=none;fillColor=none;align=center;verticalAlign=middle;whiteSpace=wrap;rounded=0;" vertex="1" parent="o6lIFUs55wkeNJCxtm7P-37">
          <mxGeometry x="34" y="68" width="80" height="20" as="geometry" />
        </mxCell>
        <mxCell id="o6lIFUs55wkeNJCxtm7P-73" value="查看客户环境适应台账" style="rounded=0;whiteSpace=wrap;html=1;strokeColor=none;fillColor=#FF99FF;" vertex="1" parent="o6lIFUs55wkeNJCxtm7P-37">
          <mxGeometry x="156" y="39" width="140" height="42" as="geometry" />
        </mxCell>
        <mxCell id="o6lIFUs55wkeNJCxtm7P-47" value="提交" style="edgeStyle=orthogonalEdgeStyle;rounded=0;orthogonalLoop=1;jettySize=auto;html=1;exitX=0.5;exitY=1;exitDx=0;exitDy=0;entryX=0.5;entryY=0;entryDx=0;entryDy=0;" edge="1" parent="o6lIFUs55wkeNJCxtm7P-26" source="o6lIFUs55wkeNJCxtm7P-40" target="o6lIFUs55wkeNJCxtm7P-43">
          <mxGeometry relative="1" as="geometry" />
        </mxCell>
        <mxCell id="o6lIFUs55wkeNJCxtm7P-53" value="接口管家信息" style="text;html=1;strokeColor=none;fillColor=none;align=center;verticalAlign=middle;whiteSpace=wrap;rounded=0;" vertex="1" parent="1">
          <mxGeometry x="890" y="1583" width="76" height="20" as="geometry" />
        </mxCell>
        <mxCell id="o6lIFUs55wkeNJCxtm7P-56" style="edgeStyle=orthogonalEdgeStyle;rounded=0;orthogonalLoop=1;jettySize=auto;html=1;exitX=0.5;exitY=1;exitDx=0;exitDy=0;" edge="1" parent="1" source="o6lIFUs55wkeNJCxtm7P-46">
          <mxGeometry relative="1" as="geometry">
            <mxPoint x="857" y="1558" as="targetPoint" />
          </mxGeometry>
        </mxCell>
        <mxCell id="o6lIFUs55wkeNJCxtm7P-65" value="" style="shape=actor;whiteSpace=wrap;html=1;" vertex="1" parent="1">
          <mxGeometry x="592" y="1564" width="26" height="34" as="geometry" />
        </mxCell>
        <mxCell id="o6lIFUs55wkeNJCxtm7P-66" value="门户测试人员" style="text;html=1;strokeColor=none;fillColor=none;align=center;verticalAlign=middle;whiteSpace=wrap;rounded=0;" vertex="1" parent="1">
          <mxGeometry x="584" y="1610" width="80" height="20" as="geometry" />
        </mxCell>
      </root>
    </mxGraphModel>
  </diagram>
</mxfile>
